<?xml version="1.0" standalone="no"?>
<!DOCTYPE svg PUBLIC "-//W3C//DTD SVG 20010904//EN"
 "http://www.w3.org/TR/2001/REC-SVG-20010904/DTD/svg10.dtd">
<svg version="1.0" xmlns="http://www.w3.org/2000/svg"
 width="500.000000pt" height="272.000000pt" viewBox="0 0 500.000000 272.000000"
 preserveAspectRatio="xMidYMid meet">

<g transform="translate(0.000000,272.000000) scale(0.100000,-0.100000)"
fill="currentColor" stroke="none">
<path d="M2392 2304 l-72 -55 0 -62 c0 -60 -1 -63 -35 -85 l-35 -22 0 -546 c0
-361 3 -543 10 -539 6 4 10 195 10 540 0 342 4 536 10 540 6 4 11 -180 13
-532 l2 -538 3 542 c1 348 6 544 12 548 7 4 10 -177 10 -535 0 -358 3 -539 10
-535 6 4 10 220 10 616 0 396 3 609 10 609 6 0 11 -214 13 -607 l2 -608 3 617
c1 398 6 619 12 623 7 4 10 -202 10 -610 0 -415 3 -614 10 -610 7 4 10 215 9
623 -1 442 2 617 10 620 8 3 12 -169 14 -615 l2 -618 3 627 c1 404 6 629 12
633 7 4 10 -205 10 -618 l0 -625 43 -17 c23 -10 70 -28 105 -41 l62 -24 0 543
0 543 -30 17 c-28 17 -30 22 -30 82 l0 64 -62 47 c-35 26 -68 51 -73 55 -6 4
-43 -17 -83 -47z"/>
<path d="M2803 1808 l-93 -52 0 -348 0 -348 65 0 65 0 0 -63 c0 -58 2 -65 24
-75 13 -6 32 -9 42 -6 11 3 57 -8 104 -24 69 -23 86 -33 91 -53 4 -13 7 179 8
426 l0 450 -96 68 c-53 38 -101 70 -107 72 -6 2 -53 -19 -103 -47z m225 -60
c39 -27 72 -56 72 -64 0 -13 -5 -12 -32 5 -18 12 -61 38 -95 59 -39 23 -63 44
-63 55 0 22 12 16 118 -55z m-17 -44 c49 -31 89 -62 89 -70 0 -8 -2 -14 -4
-14 -16 0 -186 115 -186 126 0 8 3 14 6 14 4 0 47 -25 95 -56z m32 -74 c32
-20 57 -42 57 -51 0 -13 -23 -3 -95 40 -64 38 -95 62 -95 74 0 17 3 16 38 -5
20 -13 63 -39 95 -58z m-31 -35 c59 -33 88 -56 88 -68 0 -16 -4 -15 -42 8 -24
14 -69 40 -100 58 -32 17 -58 38 -58 45 0 19 13 14 112 -43z m86 -120 c3 -13
-14 -7 -75 26 -109 60 -128 74 -119 87 9 15 190 -90 194 -113z m-90 14 c51
-28 92 -58 92 -65 0 -8 -2 -14 -4 -14 -18 0 -196 105 -196 116 0 21 9 18 108
-37z m3 -56 c49 -27 89 -54 89 -60 0 -7 -3 -13 -7 -13 -19 1 -187 96 -191 108
-6 21 18 13 109 -35z m89 -115 c0 -15 -16 -10 -100 32 -55 28 -100 54 -100 58
0 22 19 17 106 -26 66 -33 94 -52 94 -64z m-90 7 c53 -27 90 -51 90 -60 0 -8
-2 -15 -5 -15 -18 0 -195 97 -195 107 0 20 14 16 110 -32z m4 -56 c47 -23 86
-48 86 -55 0 -8 -2 -14 -4 -14 -17 0 -196 91 -196 99 0 19 26 12 114 -30z m-6
-51 c50 -24 92 -48 92 -55 0 -19 -9 -17 -106 26 -49 22 -90 47 -92 55 -5 23 3
21 106 -26z m4 -55 c61 -27 88 -43 88 -55 0 -15 -11 -12 -80 17 -102 43 -120
54 -120 65 0 17 21 11 112 -27z m41 -73 c26 -11 47 -27 47 -35 0 -8 -1 -15 -2
-15 -8 0 -189 77 -194 83 -3 3 -3 10 0 16 7 10 44 -2 149 -49z m-40 -36 c49
-21 87 -43 87 -50 0 -19 -4 -18 -95 19 -92 37 -105 45 -105 58 0 16 22 10 113
-27z m45 -71 c23 -8 42 -21 42 -29 0 -19 -7 -18 -102 17 -91 35 -103 42 -94
58 5 7 24 4 59 -10 29 -11 71 -27 95 -36z m-51 -35 c69 -25 93 -37 93 -50 0
-16 -10 -14 -87 14 -90 32 -113 44 -113 59 0 13 7 12 107 -23z"/>
<path d="M1943 1534 l-93 -66 0 -319 c0 -206 4 -319 10 -319 6 0 10 13 10 29
0 27 5 30 83 58 78 29 82 30 85 11 4 -22 6 -21 107 21 l70 30 0 263 0 262 -85
48 c-47 26 -87 47 -90 47 -3 0 -47 -30 -97 -65z m95 14 c-4 -10 -152 -108
-164 -108 -2 0 -4 6 -4 13 1 11 145 106 163 107 5 0 7 -5 5 -12z m0 -49 c-6
-19 -168 -109 -168 -94 0 8 35 35 78 59 80 47 96 54 90 35z m0 -50 c-2 -5 -40
-30 -86 -55 -103 -57 -111 -36 -9 23 72 42 102 52 95 32z m2 -41 c0 -7 -35
-32 -79 -55 -83 -46 -91 -48 -91 -34 0 8 154 100 168 101 1 0 2 -6 2 -12z m0
-51 c0 -10 -77 -55 -162 -95 -5 -2 -8 2 -8 10 0 11 142 97 163 98 4 0 7 -6 7
-13z m0 -47 c0 -8 -149 -90 -165 -90 -3 0 -5 4 -5 10 0 9 144 88 163 90 4 0 7
-4 7 -10z m-2 -50 c-5 -16 -168 -91 -168 -77 0 7 33 29 73 49 73 38 101 46 95
28z m2 -44 c0 -7 -33 -28 -72 -45 -101 -45 -98 -44 -98 -32 0 9 143 89 163 91
4 0 7 -6 7 -14z m0 -46 c0 -10 -61 -44 -132 -73 -30 -12 -38 -13 -38 -3 0 7
35 29 78 49 83 40 92 42 92 27z m-2 -52 c-3 -9 -148 -78 -164 -78 -2 0 -4 6
-4 13 0 6 33 26 73 44 79 34 101 39 95 21z m2 -42 c0 -8 -12 -19 -27 -24 -16
-6 -54 -22 -86 -36 -49 -22 -58 -24 -55 -10 2 10 36 30 83 50 44 18 81 33 83
34 1 0 2 -6 2 -14z m0 -50 c0 -8 -33 -26 -77 -42 -43 -16 -81 -30 -85 -32 -4
-2 -8 2 -8 10 0 7 35 27 78 45 89 37 92 38 92 19z m-2 -48 c-3 -7 -41 -27 -87
-44 -64 -26 -82 -29 -79 -17 2 8 35 28 73 44 77 31 99 35 93 17z"/>
<path d="M2315 983 c-83 -34 -232 -94 -332 -135 l-181 -73 120 -3 120 -3 206
111 c112 60 210 110 217 110 11 0 341 -173 393 -206 17 -11 52 -14 153 -12
l130 3 -165 65 -166 65 0 63 0 62 -54 0 -55 0 -3 -39 -3 -38 -115 46 -116 46
-149 -62z"/>
<path d="M2357 906 c-154 -83 -134 -84 33 -1 l76 37 103 -51 c57 -29 105 -50
107 -48 5 4 -200 117 -213 117 -4 -1 -52 -25 -106 -54z"/>
<path d="M2430 855 c0 -8 5 -15 10 -15 6 0 10 7 10 15 0 8 -4 15 -10 15 -5 0
-10 -7 -10 -15z"/>
<path d="M2470 855 c0 -8 7 -15 15 -15 8 0 15 7 15 15 0 8 -7 15 -15 15 -8 0
-15 -7 -15 -15z"/>
<path d="M2430 815 c0 -8 5 -15 10 -15 6 0 10 7 10 15 0 8 -4 15 -10 15 -5 0
-10 -7 -10 -15z"/>
<path d="M2470 815 c0 -8 7 -15 15 -15 8 0 15 7 15 15 0 8 -7 15 -15 15 -8 0
-15 -7 -15 -15z"/>
<path d="M2085 681 c-28 -6 -29 -7 -10 -18 18 -11 20 -22 20 -149 0 -101 -3
-138 -12 -142 -30 -9 -9 -22 37 -22 28 0 50 5 50 10 0 6 -7 10 -15 10 -13 0
-15 24 -15 160 0 122 -3 160 -12 159 -7 -1 -26 -4 -43 -8z"/>
<path d="M2281 659 c-20 -20 -31 -41 -31 -59 0 -21 -6 -31 -22 -36 l-23 -7 23
-8 c20 -8 22 -15 22 -83 0 -64 -3 -78 -22 -96 l-22 -20 62 0 c35 0 62 4 62 10
0 6 -9 10 -20 10 -20 0 -21 5 -18 88 l3 87 28 -3 c19 -3 27 1 27 12 0 11 -9
16 -30 16 -28 0 -30 2 -30 40 0 45 16 58 48 41 20 -10 32 1 32 30 0 22 -60 8
-89 -22z"/>
<path d="M3145 680 c-24 -5 -26 -8 -13 -14 19 -9 31 -47 22 -70 -3 -9 -17 -16
-30 -16 -38 0 -88 -25 -106 -52 -30 -45 -27 -120 7 -153 25 -26 76 -33 105
-15 9 5 19 5 27 -1 7 -6 26 -8 44 -4 27 6 29 9 16 17 -15 8 -17 30 -17 163 0
118 -3 155 -12 154 -7 -1 -26 -5 -43 -9z m3 -212 l-3 -83 -32 -3 c-40 -4 -66
31 -66 89 0 51 25 79 70 79 l34 0 -3 -82z"/>
<path d="M2882 671 c-19 -11 -11 -45 11 -49 9 -2 20 4 23 13 9 21 -16 47 -34
36z"/>
<path d="M1864 662 c-6 -4 -34 -68 -63 -142 -31 -82 -61 -142 -74 -152 -22
-17 -21 -18 31 -18 28 0 52 5 52 10 0 6 -7 10 -15 10 -17 0 -19 18 -5 54 9 24
14 26 74 26 59 0 64 -2 70 -24 3 -13 9 -31 12 -40 4 -11 1 -16 -10 -16 -9 0
-16 -4 -16 -10 0 -6 27 -10 63 -10 61 0 61 1 40 18 -13 10 -44 73 -76 157 -30
76 -58 140 -63 142 -5 1 -14 -1 -20 -5z m25 -117 c12 -31 21 -60 21 -65 0 -6
-23 -10 -51 -10 -37 0 -50 4 -46 13 2 6 13 36 23 65 10 28 22 52 26 52 3 0 16
-25 27 -55z"/>
<path d="M2440 567 c-24 -8 -36 -19 -38 -34 -5 -31 30 -31 43 -1 13 29 38 34
59 12 30 -30 16 -54 -43 -74 -29 -10 -57 -24 -62 -31 -13 -20 -11 -63 3 -77
17 -17 69 -15 96 4 20 14 22 14 22 0 0 -17 36 -22 58 -7 11 7 11 9 -2 14 -13
5 -16 23 -16 90 0 56 -4 88 -12 95 -22 17 -72 22 -108 9z m80 -137 c0 -34 -4
-41 -25 -46 -36 -9 -55 2 -55 31 0 20 8 29 33 40 46 20 47 19 47 -25z"/>
<path d="M2741 554 c-30 -25 -31 -25 -31 -5 0 22 -18 26 -54 12 -18 -7 -18 -8
-3 -14 24 -9 25 -177 2 -177 -8 0 -15 -4 -15 -10 0 -5 25 -10 55 -10 54 0 74
13 35 23 -17 4 -20 14 -20 64 0 71 16 98 53 91 20 -4 28 0 32 13 7 20 -1 39
-15 39 -5 0 -22 -12 -39 -26z"/>
<path d="M2856 561 c-18 -7 -18 -8 -3 -14 24 -9 25 -177 2 -177 -8 0 -15 -4
-15 -10 0 -5 23 -10 50 -10 28 0 50 5 50 10 0 6 -4 10 -10 10 -6 0 -10 40 -10
100 0 97 -1 100 -22 99 -13 0 -32 -4 -42 -8z"/>
</g>
</svg>
