<svg width="287" height="285" viewBox="0 0 287 285" fill="none" xmlns="http://www.w3.org/2000/svg">
<g filter="url(#filter0_d_10_2)">
<path d="M166.436 158.499C166.436 164.795 162.339 170.209 156.206 172.498L129.794 182.466C123.661 184.755 115.299 184.571 109.364 182.022L96.6364 176.568C90.7008 174.019 85.3578 167.144 85.3578 160.101V124.899C85.3578 118.078 89.8613 112.082 96.0482 109.811L122.46 100.111C128.647 97.8406 137.147 98.1854 143.023 100.728L155.751 106.447C161.628 108.989 166.064 115.961 166.064 122.804L166.436 158.499Z" fill="url(#paint0_linear_10_2)"/>
<path d="M206.499 133.681L206.499 127.459C206.499 121.163 202.403 115.749 196.27 113.46L169.858 103.492C163.724 101.203 155.362 101.387 149.427 103.936L136.699 109.39C130.764 111.939 125.421 118.814 125.421 125.857V161.059C125.421 167.88 129.925 173.876 136.112 176.147L162.524 185.847C168.711 188.118 177.211 187.773 183.087 185.231L195.815 179.512C201.692 176.971 206.128 170.001 206.128 163.158L206.499 133.681Z" fill="url(#paint1_linear_10_2)"/>
<path d="M245.666 113.048L245.666 106.826C245.666 100.53 241.57 95.1158 235.437 92.8267L209.025 82.8586C202.891 80.5696 194.529 80.7539 188.594 83.303L175.866 88.7571C169.931 91.3062 164.588 98.181 164.588 105.224V140.426C164.588 147.247 169.092 153.243 175.279 155.514L201.691 165.214C207.878 167.485 216.378 167.14 222.254 164.598L234.982 158.879C240.859 156.338 245.295 149.368 245.295 142.525L245.666 113.048Z" fill="url(#paint2_linear_10_2)"/>
<path d="M245.666 113.048L245.295 142.525C245.295 149.368 240.859 156.338 234.982 158.879L222.254 164.598C216.378 167.14 207.878 167.485 201.691 165.214L175.279 155.514C169.092 153.243 164.588 147.247 164.588 140.426V105.224C164.588 98.181 169.931 91.3062 175.866 88.7571L188.594 83.303C194.529 80.7539 202.891 80.5696 209.025 82.8586L235.437 92.8267C241.57 95.1158 245.666 100.53 245.666 106.826L245.666 113.048Z" fill="url(#paint3_linear_10_2)"/>
<path d="M245.666 113.048L245.295 142.525C245.295 149.368 240.859 156.338 234.982 158.879L222.254 164.598C216.378 167.14 207.878 167.485 201.691 165.214L175.279 155.514C169.092 153.243 164.588 147.247 164.588 140.426V105.224C164.588 98.181 169.931 91.3062 175.866 88.7571L188.594 83.303C194.529 80.7539 202.891 80.5696 209.025 82.8586L235.437 92.8267C241.57 95.1158 245.666 100.53 245.666 106.826V113.048Z" fill="url(#paint4_linear_10_2)"/>
<path d="M245.666 113.048L245.295 142.525C245.295 149.368 240.859 156.338 234.982 158.879L222.254 164.598C216.378 167.14 207.878 167.485 201.691 165.214L175.279 155.514C169.092 153.243 164.588 147.247 164.588 140.426V105.224C164.588 98.181 169.931 91.3062 175.866 88.7571L188.594 83.303C194.529 80.7539 202.891 80.5696 209.025 82.8586L235.437 92.8267C241.57 95.1158 245.666 100.53 245.666 106.826V113.048Z" fill="url(#paint5_linear_10_2)"/>
</g>
<defs>
<filter id="filter0_d_10_2" x="81.3578" y="79.6028" width="168.309" height="110.065" filterUnits="userSpaceOnUse" color-interpolation-filters="sRGB">
<feFlood flood-opacity="0" result="BackgroundImageless"/>
<feColorMatrix in="SourceAlpha" type="matrix" values="0 0 0 0 0 0 0 0 0 0 0 0 0 0 0 0 0 0 127 0" result="hardAlpha"/>
<feOffset dy="4"/>
<feGaussianBlur stdDeviation="2"/>
<feComposite in2="hardAlpha" operator="out"/>
<feColorMatrix type="matrix" values="0 0 0 0 0 0 0 0 0 0 0 0 0 0 0 0 0 0 0.25 0"/>
<feBlend mode="normal" in2="BackgroundImageless" operator="and"/>
<feBlend mode="normal" in="SourceGraphic" in2="Effect1_dropShadow_10_2" result="shape"/>
</filter>
<linearGradient id="paint0_linear_10_2" x1="166.064" y1="122.804" x2="85.3578" y2="160.101" gradientUnits="userSpaceOnUse">
<stop stop-color="#C58A3C"/>
<stop offset="1" stop-color="#6D4D20"/>
</linearGradient>
<linearGradient id="paint1_linear_10_2" x1="206.128" y1="163.158" x2="125.421" y2="125.857" gradientUnits="userSpaceOnUse">
<stop stop-color="#C58A3C"/>
<stop offset="1" stop-color="#6D4D20"/>
</linearGradient>
<linearGradient id="paint2_linear_10_2" x1="245.295" y1="142.525" x2="164.588" y2="105.224" gradientUnits="userSpaceOnUse">
<stop stop-color="#C58A3C"/>
<stop offset="1" stop-color="#6D4D20"/>
</linearGradient>
<linearGradient id="paint3_linear_10_2" x1="245.666" y1="113.048" x2="164.588" y2="105.224" gradientUnits="userSpaceOnUse">
<stop stop-color="#C58A3C"/>
<stop offset="1" stop-color="#6D4D20"/>
</linearGradient>
<linearGradient id="paint4_linear_10_2" x1="245.666" y1="113.048" x2="164.588" y2="105.224" gradientUnits="userSpaceOnUse">
<stop stop-color="#C58A3C"/>
<stop offset="1" stop-color="#6D4D20"/>
</linearGradient>
<linearGradient id="paint5_linear_10_2" x1="245.666" y1="113.048" x2="164.588" y2="105.224" gradientUnits="userSpaceOnUse">
<stop stop-color="#C58A3C"/>
<stop offset="1" stop-color="#6D4D20"/>
</linearGradient>
</defs>
</svg>